<svg xmlns="http://www.w3.org/2000/svg" style="display:none" aria-hidden="true">
  <!-- Paçoca — pixel-art icon sprite. Use via <svg class="icon"><use href="…icons.svg#id"/></svg>.
       Geometric/blocky to pair with Pixelify Sans; stroke icons inherit currentColor. -->
  <symbol id="run" viewBox="0 0 24 24" fill="none" stroke="currentColor" stroke-width="2" stroke-linecap="square" stroke-linejoin="miter" shape-rendering="crispEdges">
    <circle cx="15" cy="5.5" r="2.2"/>
    <path d="M9 12l4 1 3-2 3 4"/>
    <path d="M13 13l-2 4 3 3"/>
    <path d="M13 13l-4 2-2-3"/>
    <path d="M5 7l3 1"/>
  </symbol>
  <symbol id="map" viewBox="0 0 24 24" fill="none" stroke="currentColor" stroke-width="2" stroke-linejoin="miter" shape-rendering="crispEdges">
    <path d="M3 6l6-2 6 2 6-2v14l-6 2-6-2-6 2z"/>
    <path d="M9 4v14M15 6v14"/>
  </symbol>
  <symbol id="gamepad" viewBox="0 0 24 24" fill="none" stroke="currentColor" stroke-width="2" stroke-linecap="square" stroke-linejoin="miter" shape-rendering="crispEdges">
    <path d="M6 8h12a4 4 0 014 4v0a4 4 0 01-4 4 4 4 0 01-3-1.5L14 13h-4l-1 1.5A4 4 0 016 16a4 4 0 01-4-4v0a4 4 0 014-4z"/>
    <path d="M7 11v2M6 12h2"/>
    <circle cx="16" cy="11.5" r="0.6" fill="currentColor" stroke="none"/>
    <circle cx="18" cy="13" r="0.6" fill="currentColor" stroke="none"/>
  </symbol>
  <symbol id="globe" viewBox="0 0 24 24" fill="none" stroke="currentColor" stroke-width="2" stroke-linecap="square" shape-rendering="crispEdges">
    <circle cx="12" cy="12" r="9"/>
    <path d="M3 12h18M12 3a14 14 0 010 18M12 3a14 14 0 000 18"/>
  </symbol>
  <symbol id="play" viewBox="0 0 24 24" fill="currentColor" shape-rendering="crispEdges">
    <path d="M7 4l13 8-13 8z"/>
  </symbol>
  <symbol id="pencil" viewBox="0 0 24 24" fill="none" stroke="currentColor" stroke-width="2" stroke-linecap="square" stroke-linejoin="miter" shape-rendering="crispEdges">
    <path d="M4 20l4-1L19 8l-3-3L5 16z"/>
    <path d="M14 6l3 3"/>
  </symbol>
  <symbol id="share" viewBox="0 0 24 24" fill="none" stroke="currentColor" stroke-width="2" stroke-linecap="square" stroke-linejoin="miter" shape-rendering="crispEdges">
    <path d="M10 13l8-8M14 4h6v6"/>
    <path d="M18 14v5a1 1 0 01-1 1H5a1 1 0 01-1-1V7a1 1 0 011-1h5"/>
  </symbol>
  <symbol id="folder" viewBox="0 0 24 24" fill="none" stroke="currentColor" stroke-width="2" stroke-linejoin="miter" shape-rendering="crispEdges">
    <path d="M3 7a1 1 0 011-1h5l2 2h9a1 1 0 011 1v9a1 1 0 01-1 1H4a1 1 0 01-1-1z"/>
  </symbol>
  <symbol id="heart" viewBox="0 0 24 24" fill="currentColor" shape-rendering="crispEdges">
    <path d="M12 21l-1.5-1.4C5 14.5 2 11.8 2 8.5 2 6 4 4 6.5 4c1.5 0 3 .8 3.5 2 .5-1.2 2-2 3.5-2C16 4 18 6 18 8.5c0 3.3-3 6-8.5 11.1z" transform="translate(1 0)"/>
  </symbol>
  <symbol id="heart-o" viewBox="0 0 24 24" fill="none" stroke="currentColor" stroke-width="2" stroke-linejoin="miter" shape-rendering="crispEdges">
    <path d="M12 20l-1.4-1.3C5.5 14.4 3 11.9 3 8.8 3 6.5 4.8 4.8 7 4.8c1.4 0 2.7.7 3.5 1.7.8-1 2.1-1.7 3.5-1.7 2.2 0 4 1.7 4 4 0 3.1-2.5 5.6-7.6 9.9z"/>
  </symbol>
  <symbol id="star" viewBox="0 0 24 24" fill="currentColor" shape-rendering="crispEdges">
    <path d="M12 3l2.6 5.4 5.9.8-4.3 4.1 1 5.9-5.2-2.8L6.8 19.2l1-5.9L3.5 9.2l5.9-.8z"/>
  </symbol>
  <symbol id="star-o" viewBox="0 0 24 24" fill="none" stroke="currentColor" stroke-width="2" stroke-linejoin="miter" shape-rendering="crispEdges">
    <path d="M12 4l2.4 4.9 5.4.8-3.9 3.8.9 5.4-4.8-2.6L7.2 19l.9-5.4-3.9-3.8 5.4-.8z"/>
  </symbol>
  <symbol id="fire" viewBox="0 0 24 24" fill="currentColor" shape-rendering="crispEdges">
    <path d="M12 2c1 3-1 4-2 5s-2 2-2 4c0 1 .5 2 1.5 2 .3-1 .8-1.5 1.5-2 .2 1.5 1.5 2.5 1.5 4 0 .5-.2 1-.5 1.4 3-.6 5-3 5-6 0-3.5-3-5.5-3-8 0-.3 0-.5-.5-.4z"/>
  </symbol>
  <symbol id="trophy" viewBox="0 0 24 24" fill="none" stroke="currentColor" stroke-width="2" stroke-linecap="square" stroke-linejoin="miter" shape-rendering="crispEdges">
    <path d="M7 4h10v4a5 5 0 01-10 0z"/>
    <path d="M7 5H4v1a3 3 0 003 3M17 5h3v1a3 3 0 01-3 3"/>
    <path d="M12 13v4M9 20h6M10 17h4v3h-4z" fill="currentColor"/>
  </symbol>
  <symbol id="dino" viewBox="0 0 24 24" fill="currentColor" shape-rendering="crispEdges">
    <!-- little Paçoca dino glyph (blocky, echoes the favicon) -->
    <rect x="10" y="4" width="7" height="2"/>
    <rect x="9" y="6" width="9" height="4"/>
    <rect x="8" y="10" width="11" height="2"/>
    <rect x="9" y="12" width="9" height="5"/>
    <rect x="9" y="17" width="3" height="3"/>
    <rect x="15" y="17" width="3" height="3"/>
    <rect x="19" y="9" width="3" height="2"/>
    <rect x="6" y="12" width="3" height="2"/>
    <rect x="13" y="8" width="2" height="2" fill="#2a2118"/>
  </symbol>
</svg>
